<?xml version="1.0" encoding="UTF-8"?>
<!DOCTYPE svg PUBLIC "-//W3C//DTD SVG 1.1//EN" "http://www.w3.org/Graphics/SVG/1.1/DTD/svg11.dtd">
<!-- Creator: CorelDRAW -->
<svg xmlns="http://www.w3.org/2000/svg" xml:space="preserve" width="4.41072in" height="2.58794in" version="1.1" style="shape-rendering:geometricPrecision; text-rendering:geometricPrecision; image-rendering:optimizeQuality; fill-rule:evenodd; clip-rule:evenodd"
viewBox="0 0 774.12 454.21"
 xmlns:xlink="http://www.w3.org/1999/xlink"
 xmlns:xodm="http://www.corel.com/coreldraw/odm/2003">
 <defs>
  <style type="text/css">
   <![CDATA[
    .fil17 {fill:#F5C5B7;fill-rule:nonzero}
    .fil11 {fill:black;fill-rule:nonzero}
    .fil15 {fill:#211F1F;fill-rule:nonzero}
    .fil3 {fill:#232466;fill-rule:nonzero}
    .fil13 {fill:#332D34;fill-rule:nonzero}
    .fil25 {fill:#382A36;fill-rule:nonzero}
    .fil6 {fill:#3942B9;fill-rule:nonzero}
    .fil10 {fill:#424FDA;fill-rule:nonzero}
    .fil7 {fill:#443B5B;fill-rule:nonzero}
    .fil8 {fill:#5A66ED;fill-rule:nonzero}
    .fil19 {fill:#803841;fill-rule:nonzero}
    .fil21 {fill:#905456;fill-rule:nonzero}
    .fil14 {fill:#AA5754;fill-rule:nonzero}
    .fil22 {fill:#E48782;fill-rule:nonzero}
    .fil20 {fill:#F2AF94;fill-rule:nonzero}
    .fil26 {fill:#F4EFE6;fill-rule:nonzero}
    .fil24 {fill:#F6806D;fill-rule:nonzero}
    .fil1 {fill:#F9CFBF;fill-rule:nonzero}
    .fil2 {fill:#FB8E77;fill-rule:nonzero}
    .fil16 {fill:#FBCC91;fill-rule:nonzero}
    .fil9 {fill:white;fill-rule:nonzero}
    .fil27 {fill:white;fill-rule:nonzero}
    .fil18 {fill:#803841;fill-rule:nonzero;fill-opacity:0.321569}
    .fil0 {fill:#C8E6FF;fill-rule:nonzero;fill-opacity:0.458824}
    .fil23 {fill:#F6806D;fill-rule:nonzero;fill-opacity:0.458824}
    .fil12 {fill:#FB8E77;fill-rule:nonzero;fill-opacity:0.458824}
    .fil4 {fill:#424FDA;fill-rule:nonzero;fill-opacity:0.709804}
    .fil5 {fill:#443B5B;fill-rule:nonzero;fill-opacity:0.709804}
   ]]>
  </style>
 </defs>
 <g id="Layer_x0020_1">
  <metadata id="CorelCorpID_0Corel-Layer"/>
  <g id="_2422795038368">
   <g>
    <g>
     <g>
      <g>
       <path class="fil0" d="M732.32 231.8c-3.26,-32.4 -18.94,-64.86 -46.1,-88.05 -42.32,-36.14 -106.34,-45.25 -162.45,-36.9 -23.5,3.5 -46.81,9.7 -70.87,7.75 -35.1,-2.85 -66.01,-22.35 -97.97,-36.65 -43.5,-19.47 -93.36,-29.94 -139.6,-21.47 -52.43,9.6 -95.42,45.88 -100.55,94.02 -2.32,21.81 21.29,60.23 13.84,80.9 -7.56,20.96 -62.76,85.18 -61.39,134.02 1.36,48.66 14.07,63.8 32.03,88.53l14.36 0 541.12 0 31.14 0c11.19,-25.06 19.95,-45.1 6.85,-78.01 -10.46,-26.29 17.96,-47.94 28.96,-72.42 9.79,-21.78 13.01,-47.98 10.62,-71.71z"/>
      </g>
     </g>
     <g>
      <path class="fil0" d="M4.88 236.69c-11.18,-21.9 -2.49,-48.72 19.41,-59.91 21.9,-11.18 63.94,-10.26 75.12,11.64 11.18,21.9 -22.53,40.6 -36.3,60.97 -19.21,28.41 -47.05,9.19 -58.23,-12.71z"/>
     </g>
     <g>
      <path class="fil0" d="M762.61 322.39c12.66,9.44 15.27,27.36 5.83,40.03 -9.44,12.66 -33.93,24.07 -46.59,14.63 -12.66,-9.44 1.45,-29.79 3.6,-45.44 3,-21.83 24.5,-18.66 37.16,-9.21z"/>
     </g>
     <g>
      <path class="fil0" d="M683.69 60.22c12.43,-6.56 27.82,-1.8 34.38,10.62 6.56,12.43 6.36,36.46 -6.07,43.02 -12.43,6.56 -23.37,-12.56 -35.12,-20.27 -16.38,-10.76 -5.62,-26.81 6.81,-33.37z"/>
     </g>
     <g>
      <path class="fil0" d="M451.45 88.14c-5.84,5.77 -15.25,5.71 -21.03,-0.13 -5.77,-5.84 -9.72,-19.31 -3.88,-25.08 5.84,-5.77 15.2,3.07 23.07,5.4 10.98,3.25 7.68,14.04 1.84,19.82z"/>
     </g>
    </g>
    <g>
     <g>
      <path class="fil0" d="M667.61 425.27c5.72,-28.42 -3.45,-52.66 -5.73,-80.53 -2.16,-26.38 7.21,-48.57 12.41,-73.7 4.63,-22.36 3.09,-47.69 -2.72,-69.67 -7.93,-30.01 -26.19,-57.79 -52.5,-74.73 -41,-26.39 -95.67,-23.29 -140.95,-5.13 -18.97,7.6 -37.34,17.72 -57.65,20.28 -29.63,3.73 -58.46,-9.04 -87.32,-16.7 -39.29,-10.43 -82.41,-11.2 -119.48,5.26 -42.03,18.66 -71.91,60.79 -68.42,107.19 1.58,21.02 9.67,41.77 6.81,62.66 -2.91,21.18 -15.49,38.9 -22.15,58.86 -9.09,27.23 -9.92,67.25 4.7,94.88l523.18 0c4.51,-9.03 7.84,-18.71 9.84,-28.67z"/>
     </g>
    </g>
    <g>
     <g>
      <g>
       <path class="fil0" d="M570.32 336.23c-1.67,-17.17 -9.7,-34.37 -23.62,-46.66 -21.68,-19.15 -54.48,-23.98 -83.23,-19.55 -12.04,1.85 -23.98,5.14 -36.31,4.11 -17.98,-1.51 -33.82,-11.84 -50.19,-19.42 -22.28,-10.31 -47.83,-15.87 -71.52,-11.38 -26.86,5.09 -48.89,24.31 -51.51,49.82 -1.19,11.56 10.91,31.92 7.09,42.87 -3.87,11.11 -32.15,45.13 -31.45,71.02 0.69,25.78 7.21,33.8 16.41,46.91l7.36 0 277.22 0 15.95 0c5.73,-13.28 10.22,-23.9 3.51,-41.33 -5.36,-13.93 9.2,-25.41 14.84,-38.37 5.02,-11.54 6.67,-25.42 5.44,-38z"/>
      </g>
     </g>
    </g>
    <g>
     <path class="fil0" d="M80.04 31.55c0,5.81 -4.71,10.52 -10.52,10.52 -5.81,0 -10.52,-4.71 -10.52,-10.52 0,-5.81 4.71,-10.52 10.52,-10.52 5.81,0 10.52,4.71 10.52,10.52z"/>
    </g>
    <g>
     <path class="fil0" d="M621.73 10.52c0,5.81 -4.71,10.52 -10.52,10.52 -5.81,0 -10.52,-4.71 -10.52,-10.52 0,-5.81 4.71,-10.52 10.52,-10.52 5.81,0 10.52,4.71 10.52,10.52z"/>
    </g>
    <g>
     <path class="fil0" d="M86.36 125.57c0,2.9 -2.35,5.26 -5.26,5.26 -2.9,0 -5.26,-2.35 -5.26,-5.26 0,-2.9 2.35,-5.26 5.26,-5.26 2.9,0 5.26,2.35 5.26,5.26z"/>
    </g>
    <g>
     <path class="fil0" d="M377.2 21.03c0,2.9 -2.35,5.26 -5.26,5.26 -2.9,0 -5.26,-2.35 -5.26,-5.26 0,-2.9 2.35,-5.26 5.26,-5.26 2.9,0 5.26,2.35 5.26,5.26z"/>
    </g>
    <g>
     <path class="fil0" d="M755.9 171.93c0,2.9 -2.35,5.26 -5.26,5.26 -2.9,0 -5.26,-2.35 -5.26,-5.26 0,-2.9 2.35,-5.26 5.26,-5.26 2.9,0 5.26,2.35 5.26,5.26z"/>
    </g>
    <g>
     <path class="fil0" d="M10.52 399.3c0,2.9 -2.35,5.26 -5.26,5.26 -2.9,0 -5.26,-2.35 -5.26,-5.26 0,-2.9 2.35,-5.26 5.26,-5.26 2.9,0 5.26,2.35 5.26,5.26z"/>
    </g>
   </g>
   <path class="fil1" d="M85.38 285.08c0,0 3.79,0.09 6.27,-15.68 2.52,-16.01 1.97,-26.02 -3.71,-26.06 -2.78,-0.02 -4.39,3.69 -5.23,6.64 -0.35,1.24 -1.14,2.27 -2.17,2.95l-2.09 -29.64c-0.16,-2.29 -2.17,-4.04 -4.46,-3.88 -2.29,0.16 -4.04,2.17 -3.88,4.47l1.2 16.99 -1.34 -19.03c-0.16,-2.29 -2.17,-4.04 -4.47,-3.88 -2.29,0.16 -4.04,2.17 -3.88,4.46l0.25 3.49c-0.16,-2.29 -2.17,-4.04 -4.46,-3.88 -2.29,0.16 -4.04,2.17 -3.88,4.46l0.22 3.11c-0.14,-2.04 -1.93,-3.59 -3.97,-3.44 -2.04,0.14 -3.59,1.93 -3.44,3.97l1.83 25.99c-4.72,20.3 4.47,31.89 4.47,31.89l-0.11 3.3 32.99 -4.47 -0.14 -1.76z"/>
   <path class="fil2" d="M71.33 241.71c-0.29,0 -0.54,-0.23 -0.56,-0.52l-1.23 -17.45c-0.02,-0.31 0.21,-0.58 0.52,-0.6 0.32,-0.02 0.58,0.21 0.6,0.52l1.23 17.45c0.02,0.31 -0.21,0.58 -0.52,0.6 -0.01,0 -0.03,0 -0.04,0z"/>
   <path class="fil2" d="M63.06 243.33c-0.29,0 -0.54,-0.23 -0.56,-0.52l-1.23 -17.45c-0.02,-0.31 0.21,-0.58 0.52,-0.6 0.32,-0.03 0.58,0.21 0.6,0.52l1.23 17.45c0.02,0.31 -0.21,0.58 -0.52,0.6 -0.01,0 -0.03,0 -0.04,0z"/>
   <path class="fil2" d="M54.91 246.62c-0.29,0 -0.54,-0.23 -0.56,-0.52l-1.23 -17.45c-0.02,-0.31 0.21,-0.58 0.52,-0.6 0.31,-0.03 0.58,0.21 0.6,0.52l1.23 17.45c0.02,0.31 -0.21,0.58 -0.52,0.6 -0.01,0 -0.03,0 -0.04,0z"/>
   <path class="fil2" d="M72.59 268.63c-0.27,0 -0.51,-0.2 -0.56,-0.47 -2.1,-12.49 8.87,-15.92 8.98,-15.96 0.3,-0.09 0.61,0.08 0.7,0.38 0.09,0.3 -0.08,0.61 -0.38,0.7 -0.41,0.13 -10.12,3.19 -8.19,14.69 0.05,0.31 -0.16,0.6 -0.46,0.65 -0.03,0.01 -0.06,0.01 -0.09,0.01z"/>
   <path class="fil3" d="M294.84 270.4l-0.05 -0.33 -0 0.04c-5.13,-26.37 -28.34,-46.28 -56.22,-46.28l-71.29 0c-14.07,0 -26.26,8.03 -32.24,19.76l-38.75 62.97 -4.63 -17.32c-0.47,-1.77 -2.19,-2.92 -4.01,-2.67l-2.12 0.29 -32.99 4.47 -0.58 0.08c-3.44,0.47 -5.77,3.75 -5.06,7.15 1.45,6.89 2.89,14.64 4.34,20.71 3,12.58 5.99,25.16 8.99,37.74 3.64,15.3 6.93,29.23 19.77,39.49 8.28,6.61 19.29,10.25 28.63,6.25 6.61,-2.09 12.18,-6.67 15.07,-13.21l7.06 -15.97 -0.23 79.52 153.16 0 38.64 0.14c0,0 -27.21,-181.37 -27.49,-182.82z"/>
   <path class="fil4" d="M259.15 377.1l0 0c-6.95,15.64 -6.95,33.49 0,49.13l0 0 -39.84 0 -44.79 0c6.35,-15.76 6.35,-33.37 0,-49.13l84.63 0z"/>
   <path class="fil5" d="M259.15 426.79l-84.63 0c-0.19,0 -0.36,-0.09 -0.47,-0.25 -0.1,-0.16 -0.13,-0.35 -0.06,-0.53 6.33,-15.7 6.33,-33 0,-48.71l1.05 -0.42c6.34,15.72 6.44,33.01 0.31,48.77l82.94 0c-6.66,-15.57 -6.54,-33.3 0.34,-48.79l1.03 0.46c-6.88,15.46 -6.88,33.2 -0,48.67 0.08,0.17 0.06,0.38 -0.04,0.54 -0.1,0.16 -0.28,0.26 -0.47,0.26z"/>
   <polygon class="fil6" points="100.89,299 108.03,336.49 96.13,306.81 "/>
   <polygon class="fil6" points="130.52,374.09 143.35,336.49 131.67,424.48 "/>
   <polygon class="fil7" points="288.96,453.08 288.96,336.49 292.92,453.08 "/>
   <path class="fil8" d="M156.15 219.44c-0.06,-0.5 -0.14,-0.99 -0.14,-1.5l0 -10.04c0,-11.45 8.45,-20.73 18.87,-20.73l68.55 0c11.43,0 20.7,10.18 20.7,22.74 0,0 -0.07,7.77 -0.12,9.29 -0.01,0.15 0.08,0.26 0.21,0.3 5.34,1.61 9.27,6.96 9.27,13.34 0,8.5 -6.28,15.4 -14.02,15.4l-98.8 0c-7.74,0 -14.02,-6.89 -14.02,-15.4 0,-6.47 4.04,-11.88 9.5,-13.4z"/>
   <path class="fil9" d="M190.51 246.25c-2.17,0 -3.93,-1.76 -3.93,-3.93 0,-2.17 1.76,-3.93 3.93,-3.93 2.17,0 3.93,1.76 3.93,3.93 0,2.17 -1.76,3.93 -3.93,3.93zm0 -6.73l0 0c-1.54,0 -2.8,1.26 -2.8,2.8 0,1.54 1.26,2.8 2.8,2.8 1.54,0 2.8,-1.26 2.8,-2.8 0,-1.54 -1.26,-2.8 -2.8,-2.8z"/>
   <path class="fil9" d="M195.1 273.61c-0.31,0 -0.56,-0.25 -0.56,-0.56l0 -16.91c0,-1.04 -0.85,-1.89 -1.89,-1.89 -1.61,0 -2.92,-1.31 -2.92,-2.92l0 -8.99c0,-0.31 0.25,-0.56 0.56,-0.56 0.31,0 0.56,0.25 0.56,0.56l0 8.99c0,0.99 0.81,1.8 1.8,1.8 1.67,0 3.02,1.36 3.02,3.02l0 16.91c0,0.31 -0.25,0.56 -0.56,0.56z"/>
   <path class="fil9" d="M238 246.25c-2.17,0 -3.93,-1.76 -3.93,-3.93 0,-2.17 1.76,-3.93 3.93,-3.93 2.17,0 3.93,1.76 3.93,3.93 0,2.17 -1.76,3.93 -3.93,3.93zm0 -6.73l0 0c-1.54,0 -2.8,1.26 -2.8,2.8 0,1.54 1.26,2.8 2.8,2.8 1.54,0 2.8,-1.26 2.8,-2.8 0,-1.54 -1.26,-2.8 -2.8,-2.8z"/>
   <path class="fil9" d="M233.42 273.61c-0.31,0 -0.56,-0.25 -0.56,-0.56l0 -16.91c0,-1.67 1.36,-3.02 3.02,-3.02 0.99,0 1.8,-0.81 1.8,-1.8l0 -8.99c0,-0.31 0.25,-0.56 0.56,-0.56 0.31,0 0.56,0.25 0.56,0.56l0 8.99c0,1.61 -1.31,2.92 -2.92,2.92 -1.04,0 -1.89,0.85 -1.89,1.89l0 16.91c0,0.31 -0.25,0.56 -0.56,0.56z"/>
   <path class="fil10" d="M223.69 236.14l-25.04 0c-13.1,0 -23.72,-10.62 -23.72,-23.72l0 -25.23 70.38 0 0 27.34c0,11.94 -9.68,21.62 -21.62,21.62z"/>
   <path class="fil11" d="M269.2 110.66c3.15,-3.16 13.3,-14.61 4.38,-23 -8.2,-7.72 -17.84,-4.68 -24.4,-0.43 -0.14,0.09 -0.28,0.14 -0.43,0.2 0.01,-0.22 0.02,-0.44 0.02,-0.67 0,-7.92 -6.42,-14.33 -14.33,-14.33 -6.25,0 -11.55,4.01 -13.51,9.59 -0.5,0.89 -0.97,1.75 -1.47,2.52 -3.59,-2.36 -8.25,-3.8 -13.37,-3.8 -11.29,0 -20.44,6.96 -20.44,15.54 0,0.08 0.01,0.16 0.02,0.24 -9.67,4.97 -15.33,17.66 -9.23,35.64l0.51 1.23c-1.7,2.27 -2.69,4.89 -2.69,7.68 0,8.58 9.15,15.54 20.44,15.54 9.71,0 17.83,-5.15 19.91,-12.06l37.27 -5.07c1.45,0.55 3.02,0.85 4.67,0.85 0.59,0 1.17,-0.05 1.74,-0.13 0.79,0.07 1.6,0.13 2.42,0.13 11.29,0 20.44,-6.96 20.44,-15.54 0,-6.28 -4.91,-11.68 -11.96,-14.13z"/>
   <path class="fil1" d="M244 131.48c-2.25,2.51 -5.5,4.1 -9.13,4.1 -5.47,0 -10.09,-3.58 -11.68,-8.52 -1.78,2.08 -4.42,3.4 -7.38,3.4 -3.61,0 -6.75,-1.97 -8.43,-4.89l-9.22 23.42 -7.78 -5.4 0 0.08 -2.97 0c-6.9,0 -12.49,5.59 -12.49,12.49 0,6.9 5.59,12.49 12.49,12.49l2.97 0 0 8.68c0,1.02 0.06,2.03 0.16,3.02 -0.1,0.83 -0.16,1.67 -0.16,2.52l0 31.7c0,11.9 9.65,21.55 21.55,21.55l0.74 0c11.9,0 21.55,-9.65 21.55,-21.55l0 -8.77c14.79,-1.08 26.45,-13.41 26.45,-28.48l0 -1.85 0 -35.82c-1.3,0.42 -2.68,0.66 -4.12,0.66 -5.79,0 -10.7,-3.69 -12.55,-8.85z"/>
   <path class="fil12" d="M233.35 202.82l-11.31 0c-15.09,0 -27.33,-12.24 -27.33,-27.33l0 -6.83 -4.31 0 0 8.68c0,11.48 7.15,22.19 17.83,26.45 8.81,3.52 17.1,8.64 25.48,13.13 0.17,0.09 0.35,0.19 0.52,0.28 0,0 0,-11.37 -0.03,-11.38 14.8,-1.07 26.48,-13.41 26.48,-28.48l0 -1.85c0,15.09 -12.24,27.33 -27.33,27.33z"/>
   <path class="fil13" d="M224.2 154.35c0,1.13 -0.91,2.04 -2.04,2.04 -1.13,0 -2.04,-0.91 -2.04,-2.04 0,-1.13 0.91,-2.04 2.04,-2.04 1.13,0 2.04,0.91 2.04,2.04z"/>
   <path class="fil13" d="M248.75 154.35c0,1.13 -0.91,2.04 -2.04,2.04 -1.13,0 -2.04,-0.91 -2.04,-2.04 0,-1.13 0.91,-2.04 2.04,-2.04 1.13,0 2.04,0.91 2.04,2.04z"/>
   <path class="fil2" d="M235.49 194.65c-0.12,0 -0.23,-0.04 -0.33,-0.11 -0.25,-0.18 -0.3,-0.54 -0.12,-0.79 0.02,-0.04 2.59,-3.44 6.54,-2.19 0.3,0.09 0.46,0.41 0.37,0.71 -0.09,0.3 -0.41,0.47 -0.71,0.37 -3.19,-1.01 -5.27,1.75 -5.29,1.78 -0.11,0.15 -0.28,0.23 -0.45,0.23z"/>
   <path class="fil14" d="M216.67 146.93c0.92,0.16 1.97,-0.19 3.01,-0.48 1.04,-0.31 2.09,-0.59 3.01,-0.81 0.92,-0.22 1.99,-0.43 3.06,-0.61 1.06,-0.21 2.16,-0.36 2.9,-0.91 0.71,-0.52 0.81,-1.56 -0.4,-2.52 -1.15,-0.94 -3.75,-1.65 -6.81,-0.94 -3.05,0.72 -5.03,2.5 -5.6,3.85 -0.62,1.39 -0.05,2.27 0.83,2.42z"/>
   <path class="fil14" d="M253.05 146.99c-0.92,0.15 -1.97,-0.22 -3,-0.52 -1.03,-0.33 -2.08,-0.63 -3,-0.86 -0.92,-0.23 -1.99,-0.46 -3.05,-0.66 -1.05,-0.22 -2.16,-0.39 -2.89,-0.95 -0.71,-0.53 -0.79,-1.57 0.44,-2.51 1.16,-0.93 3.77,-1.6 6.82,-0.84 3.04,0.77 4.99,2.58 5.55,3.93 0.6,1.4 0.02,2.27 -0.87,2.4z"/>
   <path class="fil2" d="M185.65 160.46c-0.21,0 -0.42,-0.12 -0.51,-0.33 -0.13,-0.28 -0,-0.62 0.28,-0.75l3.66 -1.67 -2.89 -6.12c-0.13,-0.28 -0.01,-0.62 0.27,-0.75 0.28,-0.13 0.62,-0.01 0.75,0.27l3.38 7.15 -4.7 2.14c-0.08,0.03 -0.15,0.05 -0.23,0.05z"/>
   <path class="fil9" d="M214.94 165.05c0,0 5.56,4.73 11.81,7.28 6.25,2.55 -1.57,12.07 -11.24,8.72 -9.67,-3.35 -5.59,-18.43 -0.57,-15.99z"/>
   <path class="fil2" d="M245.19 157.44c-0.2,0 -0.4,-0.11 -0.5,-0.31 -0.14,-0.28 -0.03,-0.62 0.24,-0.76 2.69,-1.38 5.12,-0.05 5.22,0.01 0.27,0.15 0.37,0.49 0.21,0.77 -0.15,0.27 -0.5,0.37 -0.77,0.22 -0.08,-0.05 -2.02,-1.09 -4.16,0.01 -0.08,0.04 -0.17,0.06 -0.26,0.06z"/>
   <path class="fil2" d="M219.82 157.44c-0.21,0 -0.4,-0.11 -0.5,-0.31 -0.14,-0.28 -0.03,-0.62 0.24,-0.76 2.7,-1.38 5.12,-0.05 5.22,0.01 0.27,0.15 0.37,0.49 0.21,0.77 -0.15,0.27 -0.5,0.37 -0.77,0.22 -0.08,-0.04 -2.01,-1.09 -4.16,0.01 -0.08,0.04 -0.17,0.06 -0.26,0.06z"/>
   <path class="fil2" d="M233.36 170.81c-0.89,0 -1.75,-0.14 -2.64,-0.29 -0.37,-0.06 -0.74,-0.12 -1.13,-0.18 -0.31,-0.04 -0.52,-0.33 -0.48,-0.64 0.04,-0.31 0.33,-0.53 0.64,-0.48 0.4,0.06 0.79,0.12 1.16,0.18 1.9,0.32 3.41,0.56 5.22,-0.43 1.95,-1.07 3.78,-3.5 3.33,-5.88 -0.17,-0.91 -0.9,-1.66 -1.84,-1.91l-2.72 -0.71 -0.23 -14.1c-0.01,-0.31 0.24,-0.57 0.55,-0.57 0.34,-0.03 0.57,0.24 0.57,0.55l0.22 13.25 1.89 0.49c1.37,0.36 2.41,1.45 2.67,2.79 0.55,2.91 -1.59,5.82 -3.89,7.08 -1.17,0.64 -2.25,0.85 -3.3,0.85z"/>
   <path class="fil12" d="M208.57 154.5c0,0.48 -0.39,0.86 -0.86,0.86 -0.48,0 -0.86,-0.39 -0.86,-0.86 0,-0.48 0.39,-0.86 0.86,-0.86 0.48,0 0.86,0.39 0.86,0.86z"/>
   <path class="fil12" d="M210.5 159.89c0,0.48 -0.39,0.86 -0.86,0.86 -0.48,0 -0.86,-0.39 -0.86,-0.86 0,-0.48 0.39,-0.86 0.86,-0.86 0.48,0 0.86,0.39 0.86,0.86z"/>
   <path class="fil12" d="M205.37 159.53c0,0.67 -0.55,1.22 -1.22,1.22 -0.67,0 -1.22,-0.55 -1.22,-1.22 0,-0.67 0.55,-1.22 1.22,-1.22 0.67,0 1.22,0.55 1.22,1.22z"/>
   <path class="fil12" d="M255.52 159.89c0,0.48 -0.39,0.86 -0.86,0.86 -0.48,0 -0.86,-0.39 -0.86,-0.86 0,-0.48 0.39,-0.86 0.86,-0.86 0.48,0 0.86,0.39 0.86,0.86z"/>
   <path class="fil12" d="M257.45 165.28c0,0.48 -0.39,0.86 -0.86,0.86 -0.48,0 -0.86,-0.39 -0.86,-0.86 0,-0.48 0.39,-0.86 0.86,-0.86 0.48,0 0.86,0.39 0.86,0.86z"/>
   <path class="fil12" d="M252.32 164.92c0,0.67 -0.55,1.22 -1.22,1.22 -0.67,0 -1.22,-0.55 -1.22,-1.22 0,-0.67 0.55,-1.22 1.22,-1.22 0.67,0 1.22,0.55 1.22,1.22z"/>
   <path class="fil15" d="M627.92 135.34c7.03,-11.96 3.04,-27.35 -8.91,-34.39 -11.96,-7.03 -27.35,-3.04 -34.39,8.91 -2.27,3.87 -3.39,8.09 -3.46,12.28 -5.08,-1.05 -10.92,-1.33 -17.66,-0.56 -26.39,3 -36.31,21.77 -39.56,30.63 -0.85,2.33 0.5,4.92 2.72,5.28 0.71,0.12 1.68,0.28 2.79,0.47 -3.43,3.08 -5.59,7.53 -5.59,12.5 0,9.3 7.53,16.83 16.83,16.83 6.67,0 12.41,-3.89 15.14,-9.51l0 4.8c0,17.36 14.07,31.43 31.43,31.43l0 0c12.16,0 22.7,-6.91 27.93,-17.02 6.91,-4.73 11.65,-14.34 11.65,-25.42 0,-9.43 -3.42,-17.78 -8.7,-22.99 -0.22,-1.16 -0.5,-2.31 -0.84,-3.42 4.28,-2.09 8.02,-5.41 10.62,-9.83z"/>
   <path class="fil16" d="M532.47 227.31c-8.17,0 -14.82,-6.65 -14.82,-14.82 0,-8.17 6.65,-14.82 14.82,-14.82 0.72,0 1.44,0.05 2.14,0.15 0.31,0.04 0.52,0.33 0.48,0.64 -0.05,0.31 -0.34,0.52 -0.64,0.48 -0.65,-0.09 -1.32,-0.14 -1.98,-0.14 -7.55,0 -13.7,6.14 -13.7,13.7 0,7.55 6.14,13.7 13.7,13.7 7.55,0 13.7,-6.14 13.7,-13.7 0,-4.71 -2.37,-9.03 -6.35,-11.56 -0.26,-0.17 -0.34,-0.52 -0.17,-0.78 0.17,-0.26 0.52,-0.34 0.78,-0.17 4.3,2.74 6.88,7.42 6.88,12.51 0,8.17 -6.65,14.82 -14.82,14.82z"/>
   <path class="fil17" d="M607.81 177.72l-6.71 -0.65 0.03 -0.26c-6.76,2.7 -12.92,6.5 -13.36,8.93 -0.22,1.22 -0.06,-7.19 -1.17,-7.04 -11.57,1.58 -2.84,-22.91 -2.84,-22.91 -0.89,4.15 -10.23,5.97 -16.86,6.74 -3.8,0.44 -7.32,-2.23 -8.34,-6.36l-1.31 -5.33c0,0 -4.94,11.31 -6.82,11.31 -7.95,0 -6.78,-7.12 -5.52,-11.07l-1.42 3.72c-1.18,3.08 -4.08,4.88 -7.03,4.37 -1.12,-0.2 -2.34,-0.41 -3.54,-0.61l-3.42 35.52c-0.73,7.6 1.32,14.82 5.32,20.66 4.21,8.1 11.86,14.23 21.21,16.29l0 12.1c0,10.8 8.84,19.65 19.65,19.65l2.65 0c10.81,0 19.65,-8.84 19.65,-19.65l0 -34.09c0,-0.47 -0.04,-0.94 -0.07,-1.4 0.3,-1.31 0.52,-2.64 0.65,-4.01l0.15 -1.57 6.71 0.65c6.44,0.62 12.22,-4.14 12.84,-10.58l0.15 -1.58c0.62,-6.44 -4.14,-12.22 -10.58,-12.84z"/>
   <path class="fil18" d="M561.85 228.65l-4.2 -0.4c-9.6,-0.93 -17.77,-6.1 -22.83,-13.48 4.22,8.1 11.87,14.23 21.22,16.28l-0.02 0 0 16.28 26.75 -19.29 -0.01 0c8.6,-4.92 14.76,-13.79 15.79,-24.4l0.15 -1.57 -2.85 -0.27c-2.28,16.54 -17.23,28.47 -34,26.85z"/>
   <path class="fil19" d="M554.55 224.02c-0.14,0 -0.28,-0.05 -0.39,-0.15 -0.23,-0.21 -0.24,-0.57 -0.02,-0.8 3.11,-3.28 7.35,-1.38 7.39,-1.36 0.28,0.13 0.4,0.46 0.28,0.75 -0.13,0.28 -0.46,0.41 -0.75,0.28 -0.14,-0.07 -3.56,-1.58 -6.1,1.11 -0.11,0.12 -0.26,0.18 -0.41,0.18z"/>
   <path class="fil20" d="M572.26 193.58c0,0 -5.93,5.05 -12.6,7.77 -6.67,2.72 1.68,12.88 12,9.3 10.32,-3.58 5.96,-19.68 0.61,-17.07z"/>
   <path class="fil21" d="M571.4 206.9c-0.14,0 -0.28,-0.07 -0.36,-0.2 -1.46,-2.36 -0.72,-5.47 1.64,-6.92 0.19,-0.12 0.46,-0.06 0.58,0.14 0.12,0.2 0.06,0.46 -0.14,0.58 -1.96,1.21 -2.58,3.79 -1.37,5.76 0.12,0.2 0.06,0.46 -0.14,0.58 -0.07,0.04 -0.15,0.06 -0.22,0.06z"/>
   <path class="fil15" d="M563.37 184.03c-0.04,1.19 0.89,2.18 2.07,2.23 1.19,0.04 2.19,-0.89 2.23,-2.08 0.04,-1.19 -0.89,-2.18 -2.07,-2.23 -1.19,-0.04 -2.18,0.89 -2.23,2.08z"/>
   <path class="fil15" d="M540.68 182.75c-0.04,1.19 0.89,2.18 2.07,2.23 1.19,0.04 2.18,-0.89 2.23,-2.08 0.04,-1.19 -0.89,-2.18 -2.07,-2.23 -1.19,-0.04 -2.18,0.89 -2.23,2.08z"/>
   <path class="fil19" d="M552.52 198.62c-4.51,0 -6.37,-1.76 -7.02,-2.65 -0.32,-0.44 -0.39,-0.98 -0.19,-1.47l6.75 -20.57c0.1,-0.3 0.41,-0.46 0.71,-0.36 0.3,0.1 0.46,0.42 0.36,0.71l-6.76 20.61c-0.07,0.17 -0.05,0.3 0.04,0.42 0.67,0.91 2.92,2.92 9.33,1.91 0.3,-0.05 0.6,0.16 0.64,0.47 0.05,0.31 -0.16,0.6 -0.47,0.64 -1.27,0.2 -2.39,0.29 -3.39,0.29z"/>
   <path class="fil15" d="M576.16 176.87c-1.17,0.17 -2.48,-0.33 -3.78,-0.74 -1.3,-0.44 -2.62,-0.85 -3.77,-1.16 -1.16,-0.32 -2.5,-0.63 -3.85,-0.91 -1.33,-0.31 -2.72,-0.55 -3.63,-1.28 -0.88,-0.69 -0.96,-2.01 0.62,-3.17 1.5,-1.14 4.82,-1.92 8.66,-0.89 3.83,1.05 6.25,3.39 6.92,5.12 0.73,1.79 -0.04,2.87 -1.16,3.02z"/>
   <path class="fil15" d="M533.55 172.84c0.93,0.19 2.01,-0.15 3.07,-0.42 1.06,-0.29 2.14,-0.56 3.09,-0.76 0.95,-0.2 2.04,-0.4 3.13,-0.56 1.08,-0.19 2.21,-0.32 2.97,-0.86 0.74,-0.52 0.86,-1.57 -0.36,-2.57 -1.15,-0.98 -3.78,-1.76 -6.92,-1.1 -3.12,0.67 -5.17,2.45 -5.79,3.81 -0.66,1.41 -0.1,2.31 0.8,2.48z"/>
   <path class="fil19" d="M568.28 187.03c-0.06,0 -0.13,-0.01 -0.19,-0.03 -2.08,-0.75 -3.92,-0.18 -3.94,-0.17 -0.3,0.09 -0.61,-0.07 -0.71,-0.36 -0.09,-0.3 0.07,-0.61 0.37,-0.71 0.09,-0.03 2.23,-0.69 4.67,0.19 0.29,0.11 0.44,0.43 0.34,0.72 -0.08,0.23 -0.3,0.37 -0.53,0.37z"/>
   <path class="fil19" d="M544.98 185.75c-0.06,0 -0.13,-0.01 -0.19,-0.03 -2.08,-0.75 -3.92,-0.18 -3.94,-0.17 -0.3,0.09 -0.61,-0.07 -0.71,-0.36 -0.1,-0.3 0.07,-0.61 0.37,-0.71 0.09,-0.03 2.23,-0.7 4.67,0.18 0.29,0.11 0.44,0.43 0.34,0.72 -0.08,0.23 -0.3,0.37 -0.53,0.37z"/>
   <path class="fil19" d="M608.61 195.01c-0.1,0 -0.21,-0.03 -0.3,-0.09l-4.73 -3.03c-0.14,-0.09 -0.23,-0.23 -0.25,-0.4 -0.02,-0.16 0.03,-0.33 0.14,-0.45l4.99 -5.63c0.21,-0.23 0.56,-0.25 0.8,-0.05 0.23,0.21 0.25,0.56 0.05,0.8l-4.55 5.14 4.17 2.68c0.26,0.17 0.34,0.52 0.17,0.78 -0.11,0.17 -0.29,0.26 -0.47,0.26z"/>
   <path class="fil16" d="M605.87 227.31c-8.17,0 -14.82,-6.65 -14.82,-14.82 0,-8.17 6.65,-14.82 14.82,-14.82 0.72,0 1.44,0.05 2.14,0.15 0.31,0.04 0.52,0.33 0.48,0.64 -0.04,0.31 -0.34,0.52 -0.64,0.48 -0.65,-0.09 -1.32,-0.14 -1.98,-0.14 -7.55,0 -13.7,6.14 -13.7,13.7 0,7.55 6.14,13.7 13.7,13.7 7.55,0 13.7,-6.14 13.7,-13.7 0,-4.71 -2.37,-9.03 -6.35,-11.56 -0.26,-0.17 -0.34,-0.52 -0.17,-0.78 0.17,-0.26 0.52,-0.34 0.78,-0.17 4.3,2.74 6.88,7.42 6.88,12.51 0,8.17 -6.65,14.82 -14.82,14.82z"/>
   <path class="fil17" d="M520.99 371.05c-12.81,-7.46 -19.08,-22.77 -14.65,-36.92 0.03,-0.1 0.06,-0.2 0.1,-0.3l0.37 -1.14c-5.72,1.13 -12.26,1.51 -16.81,0.33l7.14 120.91 26.54 0 3.83 -79.09 -6.52 -3.79z"/>
   <path class="fil18" d="M494.76 333.7l5.21 18.49c4.07,14.42 14.08,26.43 27.54,33.02l0 -59.25 -32.75 7.75z"/>
   <path class="fil3" d="M677.2 333.19l-6.41 -10.78 -1.19 -2.01 -36.37 -60.4c-1.27,-1.67 -2.66,-3.19 -4.17,-4.53 -4.55,-4.03 -10.1,-6.42 -16.11,-6.47l-14.05 -0.11 0 -3.99c0,-3.51 -2.84,-6.35 -6.35,-6.35l-34.73 0c-3.51,0 -6.35,2.84 -6.35,6.35l0 3.96c-6.49,0.59 -11.97,2.12 -16.42,4.87 0,-0 0,-0.01 0,-0.01 0,0 -19.2,2.02 -40.85,34.99 -5.64,8.59 -9.41,18.32 -10.55,28.54 -0.66,5.91 -0.38,11.58 2.42,13.93 0.98,0.83 2.34,1.43 3.94,1.84 4.55,1.17 11.09,0.79 16.81,-0.33l-0.37 1.14c-0.03,0.1 -0.06,0.2 -0.1,0.3 -4.43,14.15 1.84,29.46 14.65,36.92l6.52 3.79 -3.83 79.09 6.49 0 110.83 0 -0 -108 35.08 -12.35 1.12 -0.39z"/>
   <polygon class="fil3" points="506.8,332.69 513.39,310.42 503.45,333.24 "/>
   <path class="fil17" d="M724.82 232.27c-2.04,-0.45 -4.08,0.84 -4.53,2.88l-3.81 17.14 4.51 -20.24c0.51,-2.29 -0.95,-4.59 -3.24,-5.1 -2.29,-0.51 -4.59,0.95 -5.1,3.24l0.78 -3.49c0.51,-2.29 -0.95,-4.59 -3.24,-5.1 -2.29,-0.51 -4.59,0.95 -5.1,3.24l-7.22 32.44 6.77 -30.39c0.51,-2.29 -0.95,-4.59 -3.24,-5.1 -2.29,-0.51 -4.59,0.95 -5.1,3.24l-6.6 29.65c-0.93,-0.85 -1.57,-2 -1.74,-3.31 -0.4,-3.11 -1.47,-7.1 -4.28,-7.5 -5.74,-0.82 -7.82,9.21 -7.7,25.77 0.12,16.31 3.96,16.79 3.96,16.79l-3.64 15.59 -11.15 35.41 -33.64 11.84 21.15 45.08c0.72,1.53 1.59,2.92 2.56,4.21 1.46,2.34 3.31,4.47 5.53,6.26 10.4,8.4 23.27,3.47 31.65,-5.22 10.22,-10.6 11.52,-23.35 12.98,-37.37 1.2,-11.52 2.41,-23.04 3.61,-34.57 0.77,-7.34 1.53,-14.68 2.3,-22.03l1.3 -11.3c0,0 11.04,-10.32 9.35,-31.56l5.79 -25.99c0.45,-2.04 -0.84,-4.08 -2.88,-4.53zm-18.64 26.92l0 0 1.92 -8.61 -1.92 8.61z"/>
   <path class="fil19" d="M700.77 244.72c-0.04,0 -0.08,-0 -0.12,-0.01 -0.3,-0.07 -0.5,-0.37 -0.43,-0.67l3.89 -17.45c0.07,-0.3 0.37,-0.49 0.67,-0.43 0.3,0.07 0.5,0.37 0.43,0.67l-3.88 17.45c-0.06,0.26 -0.29,0.44 -0.55,0.44z"/>
   <path class="fil19" d="M708.88 247.61c-0.04,0 -0.08,-0 -0.12,-0.01 -0.3,-0.07 -0.5,-0.37 -0.43,-0.67l3.88 -17.45c0.07,-0.3 0.37,-0.49 0.67,-0.43 0.3,0.07 0.5,0.37 0.43,0.67l-3.89 17.45c-0.06,0.26 -0.29,0.44 -0.55,0.44z"/>
   <path class="fil19" d="M716.63 252.16c-0.04,0 -0.08,-0 -0.12,-0.01 -0.3,-0.07 -0.5,-0.37 -0.43,-0.67l3.88 -17.45c0.07,-0.3 0.37,-0.49 0.67,-0.43 0.3,0.07 0.5,0.37 0.43,0.67l-3.88 17.45c-0.06,0.26 -0.29,0.44 -0.55,0.44z"/>
   <path class="fil19" d="M695.42 271.74c-0.06,0 -0.12,-0.01 -0.18,-0.03 -0.3,-0.1 -0.46,-0.42 -0.36,-0.71 3.71,-11.36 -5.66,-15.91 -6.06,-16.1 -0.28,-0.13 -0.4,-0.47 -0.27,-0.75 0.13,-0.28 0.47,-0.4 0.75,-0.27 0.11,0.05 10.67,5.17 6.65,17.47 -0.08,0.24 -0.3,0.39 -0.54,0.39z"/>
   <polygon class="fil18" points="665.12,337.44 659.09,361.58 659.09,339.56 "/>
   <path class="fil18" d="M663.67 399.3c0,0 14.93,-8.26 19.41,-0.6 0,0 -12.24,-2.69 -19.41,0.6z"/>
   <path class="fil3" d="M631.49 349.28l-7.71 3.03c-1.23,0.48 -2.62,-0.2 -2.97,-1.48l-4.31 -15.33 2.6 21.86c0.15,1.25 1.41,2.03 2.59,1.62l9.8 -3.41 9.51 20.73 -0 -6.75 -9.51 -20.28z"/>
   <polygon class="fil3" points="527.51,374.85 545.14,374.85 527.05,384.27 "/>
   <path class="fil10" d="M370.81 250.56l52.3 -0.23 1.61 203.61 37.35 0c0.57,-1.32 0.89,-2.83 0.89,-4.43l0 -172.43c0,-13.03 -4.77,-24.7 -12.29,-32.52 -6.08,-6.32 -13.94,-10.13 -22.54,-10.13l-62.5 0c-19.24,0 -34.83,19.09 -34.83,42.65l0 172.43c0,1.6 0.33,3.11 0.89,4.43l40.51 0 -1.39 -203.38z"/>
   <path class="fil22" d="M347.08 337.66l-14.27 -74.88c0,0 -2.27,6.9 -2.01,39.81 0.26,32.91 1.17,69.61 1.17,69.61l2.32 -1.59c10.13,-6.94 15.24,-20.1 12.8,-32.94z"/>
   <path class="fil22" d="M448.01 337.66l13.08 -74.43c0,0 3.47,6.45 3.21,39.35 -0.26,32.91 -1.17,69.61 -1.17,69.61l-2.32 -1.59c-10.13,-6.94 -15.24,-20.1 -12.8,-32.94z"/>
   <path class="fil11" d="M474.74 190.22c-3.34,-4.74 -8.67,-6.82 -11.72,-11.86 -4.96,-8.21 -2.59,-21.94 -9.35,-27.74 -3.44,-2.95 -7.8,-2.42 -11.96,-2.83l0.06 -3.45c0.44,-24.74 -19.26,-45.15 -44,-45.59 -24.74,-0.44 -45.15,19.26 -45.59,44l-0.09 5.05c-4.17,0.41 -8.55,-0.13 -12,2.83 -6.77,5.8 -4.39,19.53 -9.35,27.74 -3.05,5.05 -8.37,7.12 -11.72,11.86 -5.56,7.88 -3.52,20.89 2.43,27.82 5.95,6.93 14.53,9.03 22.74,9.63 18.04,1.31 37.12,-3.8 51.58,-18.14 0.33,-0.33 0.71,-0.72 1.11,-1.14 0.4,0.42 0.78,0.81 1.11,1.14 14.46,14.34 33.54,19.46 51.58,18.14 8.2,-0.6 16.79,-2.7 22.74,-9.63 5.95,-6.93 7.99,-19.94 2.43,-27.82z"/>
   <path class="fil17" d="M433.25 160.79l-2.92 0 -0.47 -12.95c-0,-0.09 -0.01,-0.17 -0.02,-0.26l-9.79 0 -4.63 -10.62 0.55 10.62 -13.86 0 -7.5 -13.75 0 13.75 -15.77 0c-6.49,0 -12.22,-3.17 -15.78,-8.04 -1.01,3.4 -1.51,7.02 -1.37,10.77l0.38 10.48 -0.32 0 -2.29 0c-6.56,0 -11.87,5.32 -11.87,11.87 0,6.56 5.32,11.87 11.87,11.87l3.15 0 0.32 0 0.19 5.2c0.4,11.17 6.24,20.85 14.87,26.63l0 26.5c0,10.22 8.28,18.5 18.5,18.5 10.22,0 18.5,-8.28 18.5,-18.5l0 -25.63c10.14,-6.07 16.76,-17.32 16.3,-29.97l-0.1 -2.72 2.06 0c6.56,0 11.87,-5.32 11.87,-11.87 0,-6.56 -5.32,-11.87 -11.87,-11.87z"/>
   <path class="fil23" d="M428.13 186.59c-0.05,17.68 -14.43,31.97 -32.11,31.92l0 0c-17.68,-0.05 -31.97,-14.43 -31.92,-32.11l0.01 -1.86 -1.49 0 0.19 5.2c0.41,11.34 6.42,21.16 15.28,26.89l-0.31 29.17 29.22 -25.2c14.33,-4.21 24.55,-17.72 23.99,-33.33l-0.1 -2.72 -2.74 0 -0.01 2.05z"/>
   <path class="fil24" d="M355.25 177.08c-0.16,0 -0.32,-0.07 -0.43,-0.19 -0.2,-0.23 -0.18,-0.59 0.06,-0.8l3.19 -2.76 -4.71 -5.3c-0.21,-0.23 -0.19,-0.59 0.05,-0.8 0.23,-0.21 0.59,-0.19 0.8,0.05l5.47 6.15 -4.05 3.51c-0.11,0.09 -0.24,0.14 -0.37,0.14z"/>
   <path class="fil24" d="M436.35 175.53c-0.1,0 -0.2,-0.03 -0.29,-0.08l-4.6 -2.75 4.32 -7.01c0.16,-0.27 0.51,-0.35 0.78,-0.18 0.26,0.16 0.35,0.51 0.18,0.78l-3.72 6.04 3.62 2.17c0.27,0.16 0.35,0.51 0.19,0.77 -0.11,0.18 -0.29,0.27 -0.48,0.27z"/>
   <path class="fil23" d="M391.61 206.65c0.25,-0 0.5,-0.14 0.63,-0.38 0.8,-1.44 2.32,-2.35 3.96,-2.37 1.64,-0.03 3.19,0.83 4.03,2.24 0.21,0.35 0.66,0.46 1,0.25 0.35,-0.21 0.46,-0.66 0.25,-1.01 -1.12,-1.85 -3.15,-2.98 -5.31,-2.95 -2.16,0.04 -4.16,1.23 -5.21,3.13 -0.2,0.35 -0.07,0.8 0.28,1 0.12,0.06 0.24,0.09 0.37,0.09z"/>
   <path class="fil24" d="M394.78 178.76c-0.45,0 -0.92,-0.04 -1.38,-0.12l-0.19 -0.03c-0.31,-0.05 -0.51,-0.35 -0.46,-0.65 0.05,-0.31 0.36,-0.51 0.65,-0.46l0.18 0.03c2.08,0.35 4.15,-0.25 5.18,-1.51 0.41,-0.51 0.82,-1.33 0.41,-2.39l-3.04 -7.77c-0.11,-0.29 0.03,-0.62 0.32,-0.73 0.29,-0.11 0.62,0.03 0.73,0.32l3.04 7.77c0.48,1.22 0.27,2.46 -0.58,3.51 -1.05,1.29 -2.87,2.03 -4.86,2.03z"/>
   <path class="fil16" d="M386.55 158.8c-0.74,0.4 -1.75,0.38 -2.72,0.42 -0.98,0.02 -1.96,0.07 -2.82,0.14 -0.85,0.07 -1.83,0.18 -2.8,0.32 -0.97,0.12 -1.96,0.29 -2.75,0.02 -0.76,-0.25 -1.13,-1.11 -0.35,-2.28 0.73,-1.13 2.77,-2.46 5.59,-2.7 2.82,-0.22 5.02,0.76 5.89,1.76 0.92,1.02 0.67,1.94 -0.05,2.31z"/>
   <path class="fil16" d="M417.81 158.79c-0.83,0.27 -1.86,0.07 -2.87,-0.06 -1.01,-0.16 -2.03,-0.29 -2.91,-0.37 -0.89,-0.08 -1.91,-0.15 -2.93,-0.18 -1.01,-0.06 -2.06,-0.06 -2.82,-0.48 -0.73,-0.4 -0.95,-1.35 0.06,-2.4 0.95,-1.03 3.29,-2.02 6.23,-1.74 2.94,0.29 5.01,1.7 5.72,2.88 0.76,1.22 0.33,2.11 -0.47,2.36z"/>
   <path class="fil25" d="M408.48 170.18c-0.03,1.25 0.96,2.29 2.21,2.31 1.25,0.03 2.29,-0.96 2.31,-2.21 0.03,-1.25 -0.96,-2.29 -2.21,-2.31 -1.25,-0.03 -2.29,0.96 -2.31,2.21z"/>
   <path class="fil25" d="M379.17 170.18c-0.03,1.25 0.96,2.29 2.21,2.31 1.25,0.03 2.29,-0.96 2.32,-2.21 0.03,-1.25 -0.96,-2.29 -2.21,-2.31 -1.25,-0.03 -2.29,0.96 -2.32,2.21z"/>
   <path class="fil24" d="M414.82 173.6c-0.09,0 -0.19,-0.02 -0.28,-0.07 -0.02,-0.01 -2.16,-1.17 -5.51,-0.48 -0.3,0.06 -0.6,-0.13 -0.67,-0.44 -0.06,-0.31 0.13,-0.6 0.44,-0.67 3.79,-0.78 6.19,0.55 6.29,0.6 0.27,0.15 0.37,0.5 0.21,0.77 -0.11,0.18 -0.3,0.29 -0.49,0.29z"/>
   <path class="fil24" d="M384.38 173.6c-0.09,0 -0.19,-0.02 -0.28,-0.07 -0.02,-0.01 -2.16,-1.17 -5.51,-0.48 -0.3,0.06 -0.6,-0.13 -0.67,-0.44 -0.06,-0.31 0.13,-0.6 0.44,-0.67 3.79,-0.78 6.19,0.55 6.29,0.6 0.27,0.15 0.37,0.5 0.21,0.77 -0.1,0.18 -0.29,0.29 -0.49,0.29z"/>
   <path class="fil9" d="M384.56 179.78c0,0 6.62,3.27 13.39,4.22 6.76,0.96 1.44,12.23 -8.87,11.33 -10.31,-0.9 -10.04,-16.71 -4.51,-15.56z"/>
   <path class="fil26" d="M356.7 180.02c0,1.2 0.97,2.17 2.17,2.17 1.2,0 2.17,-0.97 2.17,-2.17 0,-1.2 -0.97,-2.17 -2.17,-2.17 -1.2,0 -2.17,0.97 -2.17,2.17z"/>
   <path class="fil26" d="M431.96 179.45c0,1.2 0.97,2.17 2.17,2.17 1.2,0 2.17,-0.97 2.17,-2.17 0,-1.2 -0.97,-2.17 -2.17,-2.17 -1.2,0 -2.17,0.97 -2.17,2.17z"/>
   <polygon class="fil3" points="370.81,250.56 372.2,453.94 424.72,453.94 423.11,250.33 "/>
   <path class="fil17" d="M343.32 338.74l-15.4 -86.96c0,0 3.22,0.05 5.2,-13.4 2.01,-13.66 1.45,-22.17 -3.39,-22.16 -2.36,0.01 -3.7,3.18 -4.39,5.7 -0.29,1.06 -0.97,1.93 -1.84,2.52l-0.26 -3.45 1.71 -21.19c0.16,-1.95 -1.31,-3.68 -3.26,-3.84 -1.95,-0.16 -3.68,1.31 -3.84,3.26l-1.66 20.53 -0.31 -0.05 -0.78 -21.52c-0.07,-1.96 -1.73,-3.5 -3.69,-3.43 -1.96,0.07 -3.5,1.73 -3.43,3.69l0.72 20 -0.26 -0.05 -2.26 -16.84c-0.26,-1.94 -2.06,-3.32 -4,-3.05 -1.94,0.26 -3.32,2.06 -3.05,4l2.4 17.83 -0.51 0.58 -3.47 -16.24c-0.36,-1.7 -2.05,-2.8 -3.75,-2.43 -1.7,0.36 -2.8,2.05 -2.43,3.75l4.6 21.54c-3.8,17.28 4.1,27.04 4.1,27.04 -0.24,6.95 -1.71,22.56 -1.95,29.51 -0.38,10.9 -1.88,21.81 -2.25,32.71 -0.46,13.26 -0.9,25.33 7.25,36.54 6.69,9.2 18.05,15.47 28.84,8.98 8.15,-4.9 12.61,-14.16 11.36,-23.58z"/>
   <path class="fil2" d="M316.88 237.97c-0.27,0 -0.51,-0.19 -0.55,-0.47 -1.91,-10.69 7.47,-13.73 7.56,-13.76 0.3,-0.09 0.61,0.07 0.7,0.37 0.09,0.3 -0.07,0.61 -0.37,0.71 -0.35,0.11 -8.52,2.79 -6.79,12.49 0.06,0.31 -0.15,0.6 -0.46,0.65 -0.03,0.01 -0.07,0.01 -0.1,0.01z"/>
   <path class="fil23" d="M329.54 355.45c0,0 -9.44,7.3 -14.66,0.06 0,0 7.7,2.47 14.66,-0.06z"/>
   <path class="fil17" d="M501.54 202.24c-1.7,-0.36 -3.39,0.73 -3.75,2.43l-3.47 16.24 -0.51 -0.58 2.4 -17.83c0.26,-1.94 -1.11,-3.74 -3.06,-4 -1.94,-0.26 -3.74,1.11 -4,3.05l-2.26 16.84 -0.26 0.05 0.73 -20c0.07,-1.96 -1.47,-3.62 -3.43,-3.69 -1.96,-0.07 -3.62,1.47 -3.69,3.43l-0.78 21.52 -0.31 0.05 -1.66 -20.53c-0.16,-1.95 -1.88,-3.42 -3.84,-3.26 -1.95,0.16 -3.42,1.88 -3.26,3.84l1.71 21.19 -0.26 3.45c-0.87,-0.59 -1.55,-1.46 -1.84,-2.52 -0.69,-2.52 -2.03,-5.69 -4.39,-5.7 -4.84,-0.02 -5.4,8.5 -3.39,22.16 1.98,13.45 5.2,13.4 5.2,13.4l-15.4 86.96c-1.25,9.42 3.21,18.69 11.36,23.58 10.8,6.49 22.15,0.22 28.84,-8.98 8.15,-11.22 7.71,-23.28 7.25,-36.54 -0.38,-10.9 -1.88,-21.81 -2.25,-32.71 -0.24,-6.95 -1.71,-22.56 -1.95,-29.51 0,0 7.9,-9.76 4.1,-27.04l4.6 -21.54c0.36,-1.7 -0.73,-3.39 -2.43,-3.75z"/>
   <path class="fil2" d="M478.46 237.97c-0.03,0 -0.07,-0 -0.1,-0.01 -0.31,-0.06 -0.51,-0.35 -0.46,-0.65 1.74,-9.7 -6.44,-12.38 -6.79,-12.49 -0.3,-0.09 -0.46,-0.41 -0.37,-0.71 0.09,-0.3 0.4,-0.46 0.7,-0.37 0.09,0.03 9.48,3.07 7.56,13.76 -0.05,0.27 -0.29,0.47 -0.55,0.47z"/>
   <path class="fil23" d="M479.67 357.99c0,0 -10.04,6.45 -14.61,-1.22 0,0 7.45,3.13 14.61,1.22z"/>
   <path class="fil3" d="M412.88 223.17l-16.74 23.63c-0.87,1.22 -0.68,2.9 0.43,3.9l12.96 11.77c1.26,1.15 3.23,0.99 4.3,-0.34l18.99 -23.65c1.04,-1.29 0.81,-3.18 -0.5,-4.2l-15.21 -11.75c-1.33,-1.03 -3.25,-0.74 -4.23,0.63z"/>
   <path class="fil3" d="M396.08 250.69l-13.29 11.77c-1.29,1.14 -3.28,0.95 -4.32,-0.43l-19.95 -26.37c-1.11,-1.47 -0.63,-3.58 1.01,-4.42l16.88 -8.69c1.31,-0.68 2.93,-0.28 3.78,0.93l16.37 23.29c0.87,1.23 0.67,2.92 -0.46,3.92z"/>
   <path class="fil27" d="M396.88 454.21c-0.62,0 -1.13,-0.51 -1.13,-1.13l0 -205.43c0,-0.62 0.5,-1.13 1.13,-1.13 0.62,0 1.13,0.5 1.13,1.13l0 205.43c0,0.62 -0.5,1.13 -1.13,1.13z"/>
   <path class="fil27" d="M403.71 276.32c-1.76,0 -3.19,-1.43 -3.19,-3.18 0,-1.76 1.43,-3.18 3.19,-3.18 1.76,0 3.18,1.43 3.18,3.18 0,1.76 -1.43,3.18 -3.18,3.18zm0 -4.11l0 0c-0.51,0 -0.93,0.42 -0.93,0.93 0,0.51 0.42,0.93 0.93,0.93 0.51,0 0.93,-0.42 0.93,-0.93 0,-0.51 -0.42,-0.93 -0.93,-0.93z"/>
   <path class="fil27" d="M403.71 303.16c-1.76,0 -3.19,-1.43 -3.19,-3.18 0,-1.76 1.43,-3.18 3.19,-3.18 1.76,0 3.18,1.43 3.18,3.18 0,1.76 -1.43,3.18 -3.18,3.18zm0 -4.11l0 0c-0.51,0 -0.93,0.42 -0.93,0.93 0,0.51 0.42,0.93 0.93,0.93 0.51,0 0.93,-0.42 0.93,-0.93 0,-0.51 -0.42,-0.93 -0.93,-0.93z"/>
  </g>
 </g>
</svg>
